<mxfile host="app.diagrams.net" modified="2024-06-11T14:01:01.144Z" agent="Mozilla/5.0 (Windows NT 10.0; Win64; x64) AppleWebKit/537.36 (KHTML, like Gecko) Chrome/122.0.0.0 Safari/537.36" version="24.5.3" etag="Q9MyI_9Gb363dxvOHuDE" type="github">
  <diagram name="Page-1" id="aaILmBEKrbDey62hzfOM">
    <mxGraphModel>
      <root>
        <mxCell id="0" />
        <mxCell id="1" parent="0" />
      </root>
    </mxGraphModel>
  </diagram>
</mxfile>
